<?xml version="1.0" encoding="UTF-8" standalone="no"?>
<!-- Generator: Adobe Illustrator 27.4.0, SVG Export Plug-In . SVG Version: 6.00 Build 0)  -->

<svg
   version="1.1"
   id="Capa_1"
   x="0px"
   y="0px"
   viewBox="0 0 358.34 246.6071"
   xml:space="preserve"
   sodipodi:docname="EvoLP.svg"
   width="358.34"
   height="246.6071"
   inkscape:version="1.1.2 (0a00cf5339, 2022-02-04)"
   xmlns:inkscape="http://www.inkscape.org/namespaces/inkscape"
   xmlns:sodipodi="http://sodipodi.sourceforge.net/DTD/sodipodi-0.dtd"
   xmlns="http://www.w3.org/2000/svg"
   xmlns:svg="http://www.w3.org/2000/svg"><defs
   id="defs1258" /><sodipodi:namedview
   id="namedview1256"
   pagecolor="#505050"
   bordercolor="#ffffff"
   borderopacity="1"
   inkscape:pageshadow="0"
   inkscape:pageopacity="0"
   inkscape:pagecheckerboard="1"
   showgrid="false"
   inkscape:zoom="0.98737374"
   inkscape:cx="202.05115"
   inkscape:cy="254.71611"
   inkscape:window-width="1858"
   inkscape:window-height="1016"
   inkscape:window-x="0"
   inkscape:window-y="0"
   inkscape:window-maximized="1"
   inkscape:current-layer="Capa_1" />
<style
   type="text/css"
   id="style1211">
	.st0{fill:#2363DB;}
	.st1{fill:#009807;}
	.st2{fill:#A757B5;}
	.st3{fill:#EA392F;}
</style>
<g
   id="g1229"
   transform="translate(-104.1,-60.8029)">
	<path
   d="m 154.05,219.46 v 5.68 H 120.5 v 22.08 h 27.86 v 5.73 H 120.5 v 26.54 h 33.55 v 6.86 H 104.1 v -66.9 h 49.95 z"
   id="path1213" />
	<path
   d="m 175.52,235.01 14.75,31.62 15.03,-31.62 h 10.48 l -24.9,52.48 h -7 l -24.43,-52.48 z"
   id="path1215" />
	<path
   d="m 246.23,287.3 c -4.01,0 -7.72,-0.66 -11.13,-1.97 -3.41,-1.32 -6.36,-3.12 -8.83,-5.43 -2.47,-2.3 -4.41,-5.02 -5.8,-8.15 -1.39,-3.13 -2.09,-6.5 -2.09,-10.1 0,-3.88 0.7,-7.46 2.09,-10.74 1.39,-3.27 3.33,-6.09 5.8,-8.46 2.47,-2.36 5.41,-4.21 8.81,-5.54 3.4,-1.33 7.1,-2 11.11,-2 4.01,0 7.73,0.65 11.16,1.95 3.43,1.3 6.39,3.09 8.88,5.38 2.49,2.29 4.44,4.96 5.85,8.03 1.41,3.07 2.11,6.37 2.11,9.91 0,3.73 -0.7,7.24 -2.11,10.52 -1.41,3.29 -3.36,6.16 -5.85,8.62 -2.49,2.46 -5.44,4.4 -8.86,5.83 -3.42,1.44 -7.14,2.15 -11.14,2.15 z m 1.78,-6.15 c 1.41,0 2.7,-0.45 3.88,-1.36 1.17,-0.91 2.18,-2.13 3.03,-3.66 0.85,-1.53 1.51,-3.3 2,-5.31 0.49,-2 0.73,-4.1 0.73,-6.3 0,-3.23 -0.23,-6.26 -0.7,-9.11 -0.47,-2.85 -1.25,-5.34 -2.33,-7.47 -1.08,-2.13 -2.49,-3.82 -4.23,-5.07 -1.74,-1.25 -3.86,-1.88 -6.37,-1.88 -1.19,0 -2.34,0.45 -3.45,1.34 -1.11,0.89 -2.09,2.09 -2.94,3.59 -0.85,1.5 -1.53,3.24 -2.04,5.22 -0.52,1.97 -0.78,4.04 -0.78,6.2 0,3.26 0.3,6.33 0.89,9.21 0.59,2.88 1.46,5.4 2.61,7.56 1.14,2.16 2.53,3.88 4.16,5.14 1.62,1.27 3.47,1.9 5.54,1.9 z"
   id="path1217" />
	<path
   d="m 285.92,219.46 h 16.4 v 60.04 h 34.16 v 6.86 h -50.55 v -66.9 z"
   id="path1219" />
	<path
   d="m 347.05,219.46 h 23.3 c 3.76,0 7.27,0.4 10.55,1.2 3.27,0.8 6.12,1.98 8.53,3.55 2.41,1.57 4.31,3.52 5.71,5.87 1.39,2.35 2.09,5.09 2.09,8.22 0,3.16 -0.69,5.92 -2.07,8.27 -1.38,2.35 -3.19,4.31 -5.43,5.87 -2.24,1.57 -4.8,2.74 -7.68,3.52 -2.88,0.78 -5.83,1.17 -8.83,1.17 h -9.68 v 29.22 h -16.49 z m 16.49,31.62 h 5.36 c 1.85,0 3.47,-0.34 4.86,-1.01 1.39,-0.67 2.55,-1.59 3.48,-2.75 0.92,-1.16 1.61,-2.5 2.07,-4.02 0.45,-1.52 0.68,-3.11 0.68,-4.77 0,-2 -0.3,-3.79 -0.89,-5.36 -0.59,-1.57 -1.42,-2.88 -2.47,-3.95 -1.05,-1.06 -2.28,-1.88 -3.69,-2.44 -1.41,-0.56 -2.91,-0.85 -4.51,-0.85 h -4.89 z"
   id="path1221" />
	<path
   d="m 394.31,280.63 c 0,-0.94 0.17,-1.82 0.52,-2.65 0.34,-0.83 0.82,-1.55 1.43,-2.16 0.61,-0.61 1.33,-1.1 2.16,-1.46 0.83,-0.36 1.72,-0.54 2.65,-0.54 0.94,0 1.83,0.18 2.68,0.54 0.85,0.36 1.57,0.85 2.18,1.46 0.61,0.61 1.1,1.33 1.46,2.16 0.36,0.83 0.54,1.71 0.54,2.65 0,0.94 -0.18,1.82 -0.54,2.65 -0.36,0.83 -0.85,1.55 -1.46,2.16 -0.61,0.61 -1.34,1.09 -2.18,1.43 -0.85,0.34 -1.74,0.52 -2.68,0.52 -0.94,0 -1.82,-0.17 -2.65,-0.52 -0.83,-0.35 -1.55,-0.82 -2.16,-1.43 -0.61,-0.61 -1.09,-1.33 -1.43,-2.16 -0.35,-0.82 -0.52,-1.71 -0.52,-2.65 z"
   id="path1223" />
	<path
   d="m 434.58,286.36 c 0,4.48 -0.51,8.09 -1.53,10.83 -1.02,2.74 -2.45,4.87 -4.3,6.39 -1.85,1.52 -4.07,2.54 -6.67,3.05 -2.6,0.52 -5.48,0.78 -8.64,0.78 -2.13,0 -4.02,-0.18 -5.68,-0.54 -1.66,-0.36 -3.05,-0.85 -4.18,-1.48 -1.13,-0.63 -1.98,-1.36 -2.56,-2.18 -0.58,-0.83 -0.87,-1.7 -0.87,-2.61 0,-1.6 0.63,-2.93 1.88,-3.99 1.25,-1.07 2.96,-1.6 5.12,-1.6 0.82,0 1.54,0.12 2.18,0.38 0.64,0.25 1.21,0.57 1.71,0.96 0.5,0.39 0.95,0.81 1.34,1.27 0.39,0.45 0.73,0.88 1.01,1.29 0.72,0.94 1.32,1.57 1.81,1.88 0.49,0.31 0.93,0.47 1.34,0.47 0.44,0 0.83,-0.11 1.17,-0.33 0.34,-0.22 0.63,-0.61 0.85,-1.17 0.22,-0.56 0.38,-1.32 0.49,-2.26 0.11,-0.94 0.16,-2.15 0.16,-3.62 v -55.2 l 15.36,-4.23 v 51.91 z m -16.02,-66.52 c 0,-1.03 0.21,-2 0.63,-2.91 0.42,-0.91 1.01,-1.7 1.76,-2.37 0.75,-0.67 1.63,-1.21 2.63,-1.6 1,-0.39 2.07,-0.59 3.19,-0.59 1.13,0 2.19,0.2 3.2,0.59 1,0.39 1.88,0.92 2.63,1.6 0.75,0.67 1.35,1.46 1.79,2.37 0.44,0.91 0.66,1.88 0.66,2.91 0,1.03 -0.22,2 -0.66,2.91 -0.44,0.91 -1.03,1.69 -1.79,2.35 -0.75,0.66 -1.63,1.18 -2.63,1.57 -1,0.39 -2.07,0.59 -3.2,0.59 -1.13,0 -2.19,-0.2 -3.19,-0.59 -1,-0.39 -1.88,-0.92 -2.63,-1.57 -0.75,-0.66 -1.34,-1.44 -1.76,-2.35 -0.42,-0.91 -0.63,-1.88 -0.63,-2.91 z"
   id="path1225" />
	<path
   d="m 462.44,286.36 h -15.18 v -70.71 l 15.18,-4.23 z"
   id="path1227" />
</g>
<g
   id="g1253"
   transform="translate(-104.1,-60.8029)">
	<g
   id="g1243">
		<path
   class="st0"
   d="m 328.52,104.43 c -0.21,-10.35 0.12,-22.05 3,-32.67 -10.3,-0.66 -23.38,2.9 -40.35,12.01 -34.55,18.54 -47.92,52.15 -63.72,67.91 -15.81,15.76 -42.55,19.57 -50.24,2.03 -6.6,-15.06 6.26,-28.39 10.03,-31.85 0.15,-0.14 -0.02,-0.39 -0.21,-0.3 -11.59,5.76 -23.15,16.93 -21.86,31.37 1.33,14.93 16.09,37.83 51.64,26.3 35.54,-11.53 62.75,-58.14 97.11,-56.03 5.94,0.36 11.41,-0.03 16.36,-1 -1.08,-5.97 -1.64,-11.97 -1.76,-17.77 z"
   id="path1231" />
		<path
   class="st0"
   d="m 182.56,134.11 c 0,0 1.67,-3.83 5.93,-9.15 4.26,-5.32 4.95,-5.91 4.95,-6.52 0,-0.61 -0.75,-1.17 -3.88,-0.51 -3.14,0.66 -9.24,2.73 -15.8,7.63 -1.61,1.25 -3.44,2.65 -2.42,-0.75 1.02,-3.4 8.85,-11.87 18.1,-16.34 9.25,-4.47 20.35,-7.05 21.87,-5.84 1.52,1.22 -5.1,16.7 -11.94,23.48 -6.84,6.79 -13.23,8.99 -15.13,9.75 -1.9,0.76 -2.21,-0.37 -1.68,-1.75 z"
   id="path1233" />
		<path
   class="st0"
   d="m 286.07,65.99 c -0.96,-5.6 -8.48,-7.12 -14.45,-2.3 -5.97,4.82 -1.1,19.14 4.5,19.83 3.03,0.37 10.4,-14.88 9.95,-17.53 z"
   id="path1235" />
		<path
   class="st0"
   d="m 314.51,140.63 c 3.01,4.82 -1.59,10.95 -9.25,11.33 -7.66,0.38 -13.56,-13.55 -9.84,-17.8 2.01,-2.29 17.67,4.19 19.09,6.47 z"
   id="path1237" />
		<path
   class="st0"
   d="m 219.71,131.63 c -2.59,-5.06 -10.22,-4.25 -14.47,2.13 -4.25,6.38 4.68,18.59 10.23,17.57 2.99,-0.55 5.46,-17.31 4.24,-19.7 z"
   id="path1239" />
		<path
   class="st0"
   d="m 255.48,176.98 c 4.32,3.69 1.76,10.93 -5.44,13.58 -7.2,2.65 -16.99,-8.88 -14.71,-14.04 1.24,-2.79 18.11,-1.28 20.15,0.46 z"
   id="path1241" />
	</g>
	<rect
   x="368.79999"
   y="137.95"
   class="st1"
   width="32.68"
   height="32.68"
   id="rect1245" />
	<rect
   x="282.85999"
   y="161.7"
   class="st2"
   width="32.68"
   height="32.68"
   id="rect1247" />
	<rect
   x="325.82999"
   y="149.05"
   class="st3"
   width="32.68"
   height="32.68"
   id="rect1249" />
	<path
   class="st0"
   d="m 327.43,68.74 c -9.08,7.47 -15.73,21.36 -15.01,34.85 0.72,13.49 4.34,20.41 13.44,22.65 12.8,3.16 49.62,-0.9 59.48,-17.1 9.86,-16.2 -42.72,-52.89 -57.91,-40.4 z M 350,92.81 c -2.31,-0.33 -3.93,-2.47 -3.6,-4.79 0.33,-2.31 2.47,-3.93 4.79,-3.6 2.31,0.33 3.93,2.47 3.6,4.79 -0.33,2.32 -2.48,3.93 -4.79,3.6 z m -2.84,20.05 c -2.31,-0.33 -3.93,-2.47 -3.6,-4.79 0.33,-2.31 2.47,-3.93 4.79,-3.6 2.31,0.33 3.93,2.47 3.6,4.79 -0.34,2.32 -2.48,3.93 -4.79,3.6 z"
   id="path1251" />
</g>
</svg>
